<svg xmlns="http://www.w3.org/2000/svg" viewBox="0 0 64 64" id="Real-Estate-Building-House--Streamline-Pixel.svg" height="64" width="64"><desc>Real Estate Building House Streamline Icon: https://streamlinehq.com</desc><title>real-estate-building-house</title><g><path d="M60.96 36.58h-3.06v-3.04h-3.04v-3.06h-3.04V0H21.34v18.3H18.28V12.2H12.2V3.06H9.14V12.2H3.04v6.1H0V64h60.96v-18.28H64v-6.1h-3.04ZM6.1 15.24h9.14v3.06H6.1Zm15.24 24.38H18.28v6.1h3.06v15.24H3.04V21.34h18.3Zm3.04 -36.56h24.38V24.4h-3.04v-3.06h-3.06V18.3h-3.04v3.04h-3.04v3.06h-3.06v3.04h-3.04v3.04h-3.04v3.06h-3.06Zm33.52 57.9h-9.14v-12.18h-3.04v12.18h-9.14v-3.04h3.04v-3.06h-3.04v-6.08h-3.06v12.18h-9.14V39.62h3.06v-3.04h3.04v-3.04h3.04v-3.06h3.06v-3.04h3.04V24.4h3.04v3.04h3.06v3.04h3.04v3.06h3.06v3.04h3.04v3.04h3.04Z" fill="#000000" stroke-width="1"></path><path d="M30.48 39.62h21.34v3.06H30.48Z" fill="#000000" stroke-width="1"></path><path d="M36.58 45.72h9.14v3.06h-9.14Z" fill="#000000" stroke-width="1"></path><path d="M39.62 6.1h6.1V12.2h-6.1Z" fill="#000000" stroke-width="1"></path><path d="M27.44 15.24h6.08v6.1h-6.08Z" fill="#000000" stroke-width="1"></path><path d="M27.44 6.1h6.08V12.2h-6.08Z" fill="#000000" stroke-width="1"></path><path d="M9.14 51.82h6.1v6.1H9.14Z" fill="#000000" stroke-width="1"></path><path d="M9.14 39.62h6.1v6.1H9.14Z" fill="#000000" stroke-width="1"></path><path d="M9.14 27.44h6.1v6.1H9.14Z" fill="#000000" stroke-width="1"></path></g></svg>