<svg xmlns="http://www.w3.org/2000/svg" viewBox="0 0 64 64" id="Interface-Essential-Global-Public--Streamline-Pixel.svg" height="64" width="64"><desc>Interface Essential Global Public Streamline Icon: https://streamlinehq.com</desc><title>interface-essential-global-public</title><g><path d="m45.7 15.24 0 6.1 -3.04 0 0 9.14 3.04 0 0 3.04 3.06 0 0 3.06 -9.14 0 0 3.04 -3.06 0 0 3.04 9.14 0 0 6.1 -3.04 0 0 6.1 3.04 0 0 3.04 6.1 0 0 -3.04 3.06 0 0 -3.06 3.04 0 0 -6.08 3.04 0 0 -6.1 3.06 0 0 -15.24 -3.06 0 0 -6.1 -3.04 0 0 -6.08 -3.04 0 0 3.04 -9.16 0z" fill="#000000" stroke-width="1"></path><path d="M51.8 9.14h3.06V12.2H51.8Z" fill="#000000" stroke-width="1"></path><path d="M45.7 6.1h6.1v3.04h-6.1Z" fill="#000000" stroke-width="1"></path><path d="M39.62 57.9h6.08v3.06h-6.08Z" fill="#000000" stroke-width="1"></path><path d="M39.62 3.04h6.08v3.06h-6.08Z" fill="#000000" stroke-width="1"></path><path d="m33.52 57.9 -3.04 0 0 -3.04 -9.16 0 0 3.04 -3.04 0 0 3.06 6.1 0 0 3.04 15.24 0 0 -3.04 -6.1 0 0 -3.06z" fill="#000000" stroke-width="1"></path><path d="M24.38 0h15.24v3.04h-15.24Z" fill="#000000" stroke-width="1"></path><path d="m21.32 33.52 3.06 0 0 3.06 3.04 0 0 -9.16 -6.1 0 0 6.1z" fill="#000000" stroke-width="1"></path><path d="M12.18 54.86h6.1v3.04H12.18Z" fill="#000000" stroke-width="1"></path><path d="M9.14 51.8h3.04v3.06H9.14Z" fill="#000000" stroke-width="1"></path><path d="m6.1 45.72 0 6.08 3.04 0 0 -3.04 3.04 0 0 -3.04 3.06 0 0 -9.14 -3.06 0 0 -3.06 -3.04 0 0 -3.04 -3.04 0 0 -3.06 3.04 0 0 -3.04 9.14 0 0 -3.04 3.04 0 0 -3.06 3.06 0 0 3.06 3.04 0 0 -3.06 3.06 0 0 -6.08 -3.06 0 0 -3.06 -6.1 0 0 -3.04 3.06 0 0 -3.06 -6.1 0 0 3.06 -6.1 0 0 3.04 -3.04 0 0 3.06 -3.04 0 0 6.08 -3.06 0 0 6.1 -3.04 0 0 15.24 3.04 0 0 6.1 3.06 0z" fill="#000000" stroke-width="1"></path></g></svg>