<svg xmlns="http://www.w3.org/2000/svg" viewBox="0 0 64 64" id="Interface-Essential-Home-2--Streamline-Pixel.svg" height="64" width="64"><desc>Interface Essential Home 2 Streamline Icon: https://streamlinehq.com</desc><title>interface-essential-home-2</title><g><path d="m1.53 33.52 6.08 0 0 -3.04 3.06 0 0 -3.06 3.04 0 0 -3.04 3.06 0 0 -3.04 3.04 0 0 -3.06 3.04 0 0 -3.04 3.06 0 0 -3.06 3.04 0 0 -3.04 6.1 0 0 3.04 3.04 0 0 3.06 3.06 0 0 3.04 3.04 0 0 3.06 3.04 0 0 3.04 3.06 0 0 3.04 3.04 0 0 3.06 3.04 0 0 3.04 6.1 0 0 -6.1 -3.04 0 0 -3.04 -3.06 0 0 -3.04 -3.04 0 0 -3.06 -3.04 0 0 -3.04 -3.06 0 0 -3.06 -3.04 0 0 -3.04 -3.04 0 0 -3.04 -3.06 0 0 -3.06 -3.04 0 0 -3.04 -6.1 0 0 3.04 -3.04 0 0 3.06 -3.06 0 0 3.04 -3.04 0 0 3.04 -3.04 0 0 3.06 -3.06 0 0 3.04 -3.04 0 0 3.06 -3.06 0 0 3.04 -3.04 0 0 3.04 -3.04 0 0 6.1z" fill="#000000" stroke-width="1"></path><path d="m53.33 60.96 -12.18 0 0 -15.24 -3.06 0 0 18.28 18.28 0 0 -27.44 -3.04 0 0 24.4z" fill="#000000" stroke-width="1"></path><path d="M50.29 33.52h3.04v3.04h-3.04Z" fill="#000000" stroke-width="1"></path><path d="M47.23 30.48h3.06v3.04h-3.06Z" fill="#000000" stroke-width="1"></path><path d="M44.19 27.42h3.04v3.06h-3.04Z" fill="#000000" stroke-width="1"></path><path d="M41.15 24.38h3.04v3.04h-3.04Z" fill="#000000" stroke-width="1"></path><path d="M38.09 21.34h3.06v3.04h-3.06Z" fill="#000000" stroke-width="1"></path><path d="M35.05 42.66h3.04v3.06h-3.04Z" fill="#000000" stroke-width="1"></path><path d="M35.05 18.28h3.04v3.06h-3.04Z" fill="#000000" stroke-width="1"></path><path d="M28.95 39.62h6.1v3.04h-6.1Z" fill="#000000" stroke-width="1"></path><path d="M28.95 15.24h6.1v3.04h-6.1Z" fill="#000000" stroke-width="1"></path><path d="M25.91 42.66h3.04v3.06h-3.04Z" fill="#000000" stroke-width="1"></path><path d="M25.91 18.28h3.04v3.06h-3.04Z" fill="#000000" stroke-width="1"></path><path d="m25.91 45.72 -3.06 0 0 15.24 -12.18 0 0 -24.4 -3.06 0 0 27.44 18.3 0 0 -18.28z" fill="#000000" stroke-width="1"></path><path d="M22.85 21.34h3.06v3.04h-3.06Z" fill="#000000" stroke-width="1"></path><path d="M19.81 24.38h3.04v3.04h-3.04Z" fill="#000000" stroke-width="1"></path><path d="M16.77 27.42h3.04v3.06h-3.04Z" fill="#000000" stroke-width="1"></path><path d="M13.71 30.48h3.06v3.04h-3.06Z" fill="#000000" stroke-width="1"></path><path d="M10.67 33.52h3.04v3.04h-3.04Z" fill="#000000" stroke-width="1"></path></g></svg>