<svg xmlns="http://www.w3.org/2000/svg" viewBox="0 0 64 64" id="Interface-Essential-Information-Circle-1--Streamline-Pixel.svg" height="64" width="64"><desc>Interface Essential Information Circle 1 Streamline Icon: https://streamlinehq.com</desc><title>interface-essential-information-circle-1</title><g><path d="M60.96 24.38H64v15.24h-3.04Z" fill="#000000" stroke-width="1"></path><path d="M57.9 39.62h3.06v6.1h-3.06Z" fill="#000000" stroke-width="1"></path><path d="M57.9 18.28h3.06v6.1h-3.06Z" fill="#000000" stroke-width="1"></path><path d="M54.86 45.72h3.04v6.08h-3.04Z" fill="#000000" stroke-width="1"></path><path d="M54.86 12.18h3.04v6.1h-3.04Z" fill="#000000" stroke-width="1"></path><path d="M51.8 51.8h3.06v3.06H51.8Z" fill="#000000" stroke-width="1"></path><path d="M51.8 9.14h3.06v3.04H51.8Z" fill="#000000" stroke-width="1"></path><path d="M45.72 54.86h6.08v3.04h-6.08Z" fill="#000000" stroke-width="1"></path><path d="M45.72 6.1h6.08v3.04h-6.08Z" fill="#000000" stroke-width="1"></path><path d="M39.62 57.9h6.1v3.06h-6.1Z" fill="#000000" stroke-width="1"></path><path d="m42.66 45.72 -3.04 0 0 -15.24 -3.04 0 0 -3.06 -9.16 0 0 3.06 -3.04 0 0 21.32 3.04 0 0 3.06 15.24 0 0 -3.06 3.06 0 0 -3.04 -3.06 0 0 -3.04z" fill="#000000" stroke-width="1"></path><path d="M39.62 3.04h6.1v3.06h-6.1Z" fill="#000000" stroke-width="1"></path><path d="M24.38 60.96h15.24V64h-15.24Z" fill="#000000" stroke-width="1"></path><path d="m27.42 24.38 9.16 0 0 -3.04 3.04 0 0 -9.16 -3.04 0 0 -3.04 -9.16 0 0 3.04 -3.04 0 0 9.16 3.04 0 0 3.04z" fill="#000000" stroke-width="1"></path><path d="M24.38 0h15.24v3.04h-15.24Z" fill="#000000" stroke-width="1"></path><path d="M18.28 57.9h6.1v3.06H18.28Z" fill="#000000" stroke-width="1"></path><path d="M18.28 3.04h6.1v3.06H18.28Z" fill="#000000" stroke-width="1"></path><path d="M12.18 54.86h6.1v3.04H12.18Z" fill="#000000" stroke-width="1"></path><path d="M12.18 6.1h6.1v3.04H12.18Z" fill="#000000" stroke-width="1"></path><path d="M9.14 51.8h3.04v3.06H9.14Z" fill="#000000" stroke-width="1"></path><path d="M9.14 9.14h3.04v3.04H9.14Z" fill="#000000" stroke-width="1"></path><path d="M6.1 45.72h3.04v6.08H6.1Z" fill="#000000" stroke-width="1"></path><path d="M6.1 12.18h3.04v6.1H6.1Z" fill="#000000" stroke-width="1"></path><path d="M3.04 39.62h3.06v6.1H3.04Z" fill="#000000" stroke-width="1"></path><path d="M3.04 18.28h3.06v6.1H3.04Z" fill="#000000" stroke-width="1"></path><path d="M0 24.38h3.04v15.24H0Z" fill="#000000" stroke-width="1"></path></g></svg>