<svg xmlns="http://www.w3.org/2000/svg" width="64" height="64" viewBox="0 0 64 64" id="Interface-Essential-Navigation-Menu-3--Streamline-Pixel.svg">
    <desc>Interface Essential Navigation Menu 3 Streamline Icon: https://streamlinehq.com</desc>
    <title>interface-essential-navigation-menu-3</title>
    <g>
        <path d="M59.42 7.62h3.06v48.76h-3.06Z" fill="#000000" stroke-width="1"></path>
        <path d="M56.38 56.38h3.04v3.04h-3.04Z" fill="#000000" stroke-width="1"></path>
        <path d="M56.38 4.56h3.04v3.06h-3.04Z" fill="#000000" stroke-width="1"></path>
        <path d="M7.62 59.42h48.76v3.06H7.62Z" fill="#000000" stroke-width="1"></path>
        <path d="m50.28 41.14 -36.56 0 0 3.04 -3.06 0 0 6.1 3.06 0 0 -3.04 36.56 0 0 3.04 3.06 0 0 -6.1 -3.06 0 0 -3.04z" fill="#000000" stroke-width="1"></path>
        <path d="m50.28 25.9 -36.56 0 0 3.04 -3.06 0 0 6.1 3.06 0 0 -3.04 36.56 0 0 3.04 3.06 0 0 -6.1 -3.06 0 0 -3.04z" fill="#000000" stroke-width="1"></path>
        <path d="m50.28 10.66 -36.56 0 0 3.04 -3.06 0 0 6.1 3.06 0 0 -3.04 36.56 0 0 3.04 3.06 0 0 -6.1 -3.06 0 0 -3.04z" fill="#000000" stroke-width="1"></path>
        <path d="M13.72 50.28h36.56v3.04H13.72Z" fill="#000000" stroke-width="1"></path>
        <path d="M13.72 35.04h36.56v3.04H13.72Z" fill="#000000" stroke-width="1"></path>
        <path d="M13.72 19.8h36.56v3.06H13.72Z" fill="#000000" stroke-width="1"></path>
        <path d="M7.62 1.52h48.76v3.04H7.62Z" fill="#000000" stroke-width="1"></path>
        <path d="M4.58 56.38h3.04v3.04H4.58Z" fill="#000000" stroke-width="1"></path>
        <path d="M4.58 4.56h3.04v3.06H4.58Z" fill="#000000" stroke-width="1"></path>
        <path d="M1.52 7.62h3.06v48.76H1.52Z" fill="#000000" stroke-width="1"></path>
    </g>
</svg>