<svg xmlns="http://www.w3.org/2000/svg" viewBox="0 0 64 64" id="Interface-Essential-Paginate-Filter-Picture--Streamline-Pixel.svg" height="64" width="64"><desc>Interface Essential Paginate Filter Picture Streamline Icon: https://streamlinehq.com</desc><title>interface-essential-paginate-filter-picture</title><g><path d="M59.42 4.56h3.06v45.72h-3.06Z" fill="#000000" stroke-width="1"></path><path d="m13.7 50.28 0 3.04 3.06 0 0 3.06 3.04 0 0 -3.06 6.1 0 0 3.06 3.04 0 0 -3.06 6.1 0 0 3.06 3.04 0 0 -3.06 6.1 0 0 3.06 3.06 0 0 -3.06 3.04 0 0 3.06 -3.04 0 0 3.04 -6.1 0 0 -3.04 -3.06 0 0 3.04 -6.08 0 0 -3.04 -3.06 0 0 3.04 -6.08 0 0 -3.04 -3.06 0 0 3.04 -6.1 0 0 -3.04 -3.04 0 0 3.04 -6.1 0 0 3.06 45.72 0 0 -3.06 3.04 0 0 -6.1 6.1 0 0 -3.04 -45.72 0z" fill="#000000" stroke-width="1"></path><path d="m53.32 25.9 -6.08 0 0 3.04 6.08 0 0 9.16 3.06 0 0 -27.44 -3.06 0 0 15.24z" fill="#000000" stroke-width="1"></path><path d="m47.24 35.04 -3.06 0 0 3.06 -24.38 0 0 3.04 33.52 0 0 -3.04 -6.08 0 0 -3.06z" fill="#000000" stroke-width="1"></path><path d="M44.18 13.7h6.1V19.8h-6.1Z" fill="#000000" stroke-width="1"></path><path d="M44.18 28.94h3.06V32h-3.06Z" fill="#000000" stroke-width="1"></path><path d="M41.14 32h3.04v3.04h-3.04Z" fill="#000000" stroke-width="1"></path><path d="M38.08 28.94h3.06V32h-3.06Z" fill="#000000" stroke-width="1"></path><path d="M35.04 25.9h3.04v3.04h-3.04Z" fill="#000000" stroke-width="1"></path><path d="M28.94 22.86h6.1v3.04h-6.1Z" fill="#000000" stroke-width="1"></path><path d="M25.9 25.9h3.04v3.04h-3.04Z" fill="#000000" stroke-width="1"></path><path d="M22.86 28.94h3.04V32h-3.04Z" fill="#000000" stroke-width="1"></path><path d="M19.8 7.62h33.52v3.04H19.8Z" fill="#000000" stroke-width="1"></path><path d="m22.86 35.04 0 -3.04 -3.06 0 0 -21.34 -3.04 0 0 27.44 3.04 0 0 -3.06 3.06 0z" fill="#000000" stroke-width="1"></path><path d="M13.7 1.52h45.72v3.04H13.7Z" fill="#000000" stroke-width="1"></path><path d="M7.62 53.32h3.04v3.06H7.62Z" fill="#000000" stroke-width="1"></path><path d="m7.62 53.32 0 -3.04 -3.06 0 0 -6.1 3.06 0 0 -3.04 -3.06 0 0 -6.1 3.06 0 0 -3.04 -3.06 0 0 -6.1 3.06 0 0 -3.04 -3.06 0 0 -6.1 3.06 0 0 -3.06 3.04 0 0 3.06 -3.04 0 0 3.04 3.04 0 0 6.1 -3.04 0 0 3.04 3.04 0 0 6.1 -3.04 0 0 3.06 3.04 0 0 6.08 -3.04 0 0 3.06 3.04 0 0 3.04 3.04 0 0 -45.72 -3.04 0 0 6.1 -6.1 0 0 3.04 -3.04 0 0 45.72 3.04 0 0 -6.1 3.06 0z" fill="#000000" stroke-width="1"></path></g></svg>