<svg xmlns="http://www.w3.org/2000/svg" viewBox="0 0 64 64" id="Multiple-User--Streamline-Pixel.svg" height="64" width="64"><desc>Multiple User Streamline Icon: https://streamlinehq.com</desc><title>multiple-user</title><g><path d="M60.96 36.57H64v3.06h-3.04Z" fill="#000000" stroke-width="1"></path><path d="M54.86 33.53h6.1v3.04h-6.1Z" fill="#000000" stroke-width="1"></path><path d="M54.86 27.43h3.04v3.06h-3.04Z" fill="#000000" stroke-width="1"></path><path d="m45.72 30.49 0 -6.1 -3.04 0 0 -3.06 -3.06 0 0 -6.08 3.06 0 0 -3.06 12.18 0 0 3.06 3.04 0 0 12.18 3.06 0 0 -18.28 -3.06 0 0 -3.06 -3.04 0 0 -3.04 -12.18 0 0 3.04 -3.06 0 0 3.06 -3.04 0 0 9.14 -9.14 0 0 -9.14 -3.06 0 0 -3.06 -3.04 0 0 -3.04 -12.2 0 0 3.04 -3.04 0 0 3.06 -3.04 0 0 18.28 3.04 0 0 -12.18 3.04 0 0 -3.06 12.2 0 0 3.06 3.04 0 0 6.08 -3.04 0 0 3.06 -3.04 0 0 6.1 -9.16 0 0 3.04 9.16 0 0 12.18 3.04 0 0 -15.22 3.04 0 0 -3.06 15.24 0 0 3.06 3.06 0 0 15.22 3.04 0 0 -12.18 9.14 0 0 -3.04 -9.14 0z" fill="#000000" stroke-width="1"></path><path d="M48.76 57.91h3.06v3.04h-3.06Z" fill="#000000" stroke-width="1"></path><path d="M45.72 54.87h3.04v3.04h-3.04Z" fill="#000000" stroke-width="1"></path><path d="M39.62 51.81h6.1v3.06h-6.1Z" fill="#000000" stroke-width="1"></path><path d="M39.62 45.71h3.06v3.06h-3.06Z" fill="#000000" stroke-width="1"></path><path d="M36.58 33.53h3.04v6.1h-3.04Z" fill="#000000" stroke-width="1"></path><path d="M24.38 48.77h15.24v3.04h-15.24Z" fill="#000000" stroke-width="1"></path><path d="M27.44 42.67h9.14v3.04h-9.14Z" fill="#000000" stroke-width="1"></path><path d="M24.38 33.53h3.06v6.1h-3.06Z" fill="#000000" stroke-width="1"></path><path d="M21.34 45.71h3.04v3.06h-3.04Z" fill="#000000" stroke-width="1"></path><path d="M18.3 51.81h6.08v3.06H18.3Z" fill="#000000" stroke-width="1"></path><path d="M15.24 54.87h3.06v3.04H15.24Z" fill="#000000" stroke-width="1"></path><path d="M12.2 57.91h3.04v3.04H12.2Z" fill="#000000" stroke-width="1"></path><path d="M6.1 27.43h3.04v3.06H6.1Z" fill="#000000" stroke-width="1"></path><path d="M3.06 33.53h6.08v3.04H3.06Z" fill="#000000" stroke-width="1"></path><path d="M0 36.57h3.06v3.06H0Z" fill="#000000" stroke-width="1"></path></g></svg>