<svg xmlns="http://www.w3.org/2000/svg" viewBox="0 0 64 64" id="Interface-Essential-Paginate-Filter-Video--Streamline-Pixel.svg" height="64" width="64"><desc>Interface Essential Paginate Filter Video Streamline Icon: https://streamlinehq.com</desc><title>interface-essential-paginate-filter-video</title><g><path d="M59.42 4.56h3.06v45.72h-3.06Z" fill="#000000" stroke-width="1"></path><path d="m50.28 62.48 0 -3.06 3.04 0 0 -6.1 6.1 0 0 -3.04 -45.72 0 0 3.04 3.06 0 0 3.06 3.04 0 0 -3.06 6.1 0 0 3.06 3.04 0 0 -3.06 6.1 0 0 3.06 3.04 0 0 -3.06 6.1 0 0 3.06 3.06 0 0 -3.06 3.04 0 0 3.06 -3.04 0 0 3.04 -6.1 0 0 -3.04 -3.06 0 0 3.04 -6.08 0 0 -3.04 -3.06 0 0 3.04 -6.08 0 0 -3.04 -3.06 0 0 3.04 -6.1 0 0 -3.04 -3.04 0 0 3.04 -6.1 0 0 3.06 45.72 0z" fill="#000000" stroke-width="1"></path><path d="m35.04 41.14 3.04 0 0 -3.04 3.06 0 0 -3.06 3.04 0 0 -3.04 3.06 0 0 -3.06 3.04 0 0 -3.04 -3.04 0 0 -3.04 -3.06 0 0 -3.06 -3.04 0 0 -3.04 -3.06 0 0 -3.06 -3.04 0 0 -3.04 -6.1 0 0 33.52 6.1 0 0 -3.04z" fill="#000000" stroke-width="1"></path><path d="M13.7 1.52h45.72v3.04H13.7Z" fill="#000000" stroke-width="1"></path><path d="M7.62 53.32h3.04v3.06H7.62Z" fill="#000000" stroke-width="1"></path><path d="m7.62 53.32 0 -3.04 -3.06 0 0 -6.1 3.06 0 0 -3.04 -3.06 0 0 -6.1 3.06 0 0 -3.04 -3.06 0 0 -6.1 3.06 0 0 -3.04 -3.06 0 0 -6.1 3.06 0 0 -3.06 3.04 0 0 3.06 -3.04 0 0 3.04 3.04 0 0 6.1 -3.04 0 0 3.04 3.04 0 0 6.1 -3.04 0 0 3.06 3.04 0 0 6.08 -3.04 0 0 3.06 3.04 0 0 3.04 3.04 0 0 -45.72 -3.04 0 0 6.1 -6.1 0 0 3.04 -3.04 0 0 45.72 3.04 0 0 -6.1 3.06 0z" fill="#000000" stroke-width="1"></path></g></svg>