<svg width="415" height="326" viewBox="0 0 415 326" fill="none" xmlns="http://www.w3.org/2000/svg">
<path d="M5.99999 91.5C5.99999 46.4888 42.4888 10 87.5 10H326.5C371.511 10 408 46.4888 408 91.5V91.5C408 136.511 371.511 173 326.5 173H87.5C42.4888 173 5.99999 136.511 5.99999 91.5V91.5Z" fill="#C8DEEC"/>
<path d="M29 91.5C29 58.6391 55.639 32 88.5 32H328.5C361.361 32 388 58.6391 388 91.5C388 124.361 361.361 151 328.5 151H88.5C55.639 151 29 124.361 29 91.5Z" fill="black"/>
<path d="M158 36.5H96C39.5 64.5 66 131.5 92 146.5H170.5C196.9 135.3 199.833 89.1667 198 67.5L158 36.5Z" fill="#FFFBC7"/>
<path d="M254.44 37H316.44C372.94 65 346.44 132 320.44 147H249.5C228.5 135.5 209 98.5 214.44 68L254.44 37Z" fill="#FFFBC7"/>
<path d="M108 107V78H138V107H108Z" fill="#010101"/>
<path d="M277 106V78H306V106H277Z" fill="#010101"/>
<path fill-rule="evenodd" clip-rule="evenodd" d="M307.101 0.00012207L307.701 0.0517092C338.688 2.71923 362.069 7.96448 379.312 19.9858C397.233 32.4801 406.381 50.713 412.664 73.8424C413.435 76.6783 413.945 79.6363 414.143 82.644C414.661 90.5102 414.588 97.8491 413.879 105.322L413.837 105.769L413.766 106.212C410.963 123.725 404.561 138.206 392.396 150.196C380.64 161.783 364.487 170.045 344.156 177.3C339.004 179.139 333.674 180.007 328.467 180.088L79.6569 183.953C77.039 183.994 74.1793 183.85 71.2041 183.334C40.9434 178.093 18.1238 161.45 7.18461 131.776C1.7366 116.997 -1.12549 94.9195 1.0995 78.8135C3.38119 56.8039 11.5035 38.8359 26.2376 25.4315C40.719 12.2571 60.2703 4.69805 83.1965 0.691662C86.0081 0.20032 88.7771 0.00012207 91.4225 0.00012207H307.101ZM15 80.5C13.0585 94.1159 15.5633 114.029 20.3205 126.933C29.3262 151.363 47.6414 165.044 73.5935 169.54C75.5216 169.874 77.4829 169.985 79.4395 169.955L328.249 166.09C332.06 166.03 335.861 165.396 339.45 164.115C378.647 150.127 395.071 134.436 399.942 104C400.574 97.3299 400.646 90.7436 400.173 83.5646C400.039 81.5237 399.69 79.4864 399.154 77.5126C387.377 34.1607 367.552 19.2557 306.5 14.0001H91.4225C89.4772 14.0001 87.5227 14.1478 85.6065 14.4827C42.6322 21.9925 18.9224 41.7794 15 80.5Z" fill="black"/>
<path fill-rule="evenodd" clip-rule="evenodd" d="M320.5 276C325.242 262.46 324.514 254.498 320.5 240C317.028 229.72 314.006 224.984 305.477 223.26C304.501 223.063 303.484 223.018 302.489 223.053C232.163 225.523 192.267 225.775 121.5 223.5C113.978 223.783 109.575 224.464 103.5 231C99.8486 234.684 98.7288 237.899 97.4351 243.184C97.1404 244.389 97 245.626 97 246.866V263.5C96.4619 271.341 97.3352 275.484 100.879 281.475C101.285 282.16 101.657 282.871 101.978 283.6C107.694 296.568 112.295 300.262 121.5 303.5C138.444 310.45 147.833 311.838 164.5 312.5C181.736 314.47 191.393 315.454 208.5 315C227.54 315.958 236.859 315.075 253 313C270.606 312.023 279.846 310.348 295 305C311.989 300.389 315.43 291.208 320.5 276ZM136.284 259.929C136.284 259.929 136.291 259.932 136.304 259.937C136.291 259.932 136.284 259.929 136.284 259.929ZM296.517 267.601L300.746 246.673L296.517 267.601Z" fill="#FFFBC7"/>
<path fill-rule="evenodd" clip-rule="evenodd" d="M273.704 310.082L273.903 310.06C283.718 308.977 292.536 306.009 299.965 303.128C300.515 302.915 301.011 302.614 301.435 302.247C307.915 296.641 312.912 291.555 316.633 286.834C316.801 286.621 316.939 286.391 317.045 286.151C321.572 275.92 322.994 265.357 322.294 251.304C320.332 233.839 313.756 225.965 305.045 223.131C305.046 223.131 305.038 223.128 305.02 223.124C305.01 223.121 304.997 223.118 304.981 223.115C304.935 223.105 304.868 223.093 304.777 223.082C304.592 223.06 304.336 223.045 304.006 223.054C292.224 223.353 281.371 223.664 271.14 223.956C218.183 225.471 181.907 226.509 119.834 223.09C119.281 223.059 118.921 223.101 118.744 223.139C111.531 224.669 106.81 227.524 103.694 231.079C100.572 234.642 98.3577 239.714 97.5933 246.908C96.3141 263.462 96.8708 273.574 101.95 284.038C106.567 293.064 111.068 298.134 117.3 301.731C123.98 305.587 133.525 308.271 149.373 310.594C194.312 316.472 229.797 316.716 273.506 310.112L273.704 310.082ZM148 320.5C115.707 315.774 103.428 308.938 93 288.5C86.6608 275.497 86.3038 263.114 87.6337 246C89.4585 228.389 98.9041 217.126 116.668 213.357C117.881 213.1 119.147 213.037 120.384 213.105C182.018 216.5 217.886 215.475 270.794 213.962C281.038 213.669 291.92 213.358 303.752 213.057C305.228 213.019 306.735 213.164 308.139 213.621C322.104 218.165 330.114 230.737 332.266 250.5C333.052 265.695 331.578 278.021 326.19 290.198C325.743 291.208 325.17 292.158 324.486 293.025C320.256 298.392 314.769 303.934 307.979 309.809C306.676 310.937 305.186 311.829 303.58 312.452C295.864 315.443 286.098 318.775 275 320C230.232 326.763 193.785 326.493 148 320.5Z" fill="black"/>
<path fill-rule="evenodd" clip-rule="evenodd" d="M322.401 245.973C236.965 257.494 187.644 258.629 97.0847 245.971L97.9153 240.029C187.882 252.604 236.652 251.482 321.599 240.027L322.401 245.973Z" fill="black"/>
<path fill-rule="evenodd" clip-rule="evenodd" d="M322.901 281.973C237.465 293.494 188.144 294.629 97.5847 281.971L98.4153 276.029C188.382 288.604 237.152 287.482 322.099 276.027L322.901 281.973Z" fill="black"/>
<path fill-rule="evenodd" clip-rule="evenodd" d="M115.5 305V221.5H121.5V305H115.5Z" fill="black"/>
<path fill-rule="evenodd" clip-rule="evenodd" d="M158 314V222H164V314H158Z" fill="black"/>
<path fill-rule="evenodd" clip-rule="evenodd" d="M203 317V225H209V317H203Z" fill="black"/>
<path fill-rule="evenodd" clip-rule="evenodd" d="M247 318V223H253V318H247Z" fill="black"/>
<path fill-rule="evenodd" clip-rule="evenodd" d="M289 308.5V222H295V308.5H289Z" fill="black"/>
</svg>
